<?xml version="1.0" encoding="utf-8"?>
<!-- Generator: Adobe Illustrator 19.2.1, SVG Export Plug-In . SVG Version: 6.00 Build 0)  -->
<!DOCTYPE svg PUBLIC "-//W3C//DTD SVG 1.1//EN" "http://www.w3.org/Graphics/SVG/1.1/DTD/svg11.dtd">
<svg version="1.1" id="Layer_4" xmlns="http://www.w3.org/2000/svg" xmlns:xlink="http://www.w3.org/1999/xlink" x="0px" y="0px"
	 viewBox="0 0 400 400" style="enable-background:new 0 0 400 400;" xml:space="preserve">
<style type="text/css">
	.st0{fill:none;}
</style>
<title>bed</title>
<path d="M350.2,310.5v-30.3H49.8v30.3H35v-48.5h-4.7c-4.1,0-7.4-3.3-7.4-7.4v-36.4c0.1-14.6,10.1-27.3,24.2-30.8v-42
	c0.1-30.9,25.1-55.9,56-55.9H297c30.9,0,55.9,25,55.9,55.9v42c14.2,3.4,24.2,16.1,24.3,30.8v36.4c0,4.1-3.3,7.4-7.4,7.4h-4.7v48.5
	H350.2z M350.2,265.3v-3.4H49.8v3.4H350.2L350.2,265.3z M362.4,247.2v-29c0-9.3-7.6-16.9-16.9-16.9H54.6c-9.3,0-16.9,7.6-16.9,16.9
	v28.9L362.4,247.2L362.4,247.2z M338.1,186.5v-41.1c-0.1-22.7-18.5-41.1-41.2-41.1H103.1c-22.7,0-41.1,18.4-41.1,41.1v41.1h27.6v-35
	c0-3,1.8-5.7,4.6-6.8h0.2c5.3-2.1,32.8-12.6,48.1-12.6s42.8,10.5,48.1,12.6c2.9,1.1,4.7,3.8,4.7,6.9v35h9.3v-35.1
	c0-3,1.8-5.8,4.7-6.9c3.2-1.3,32.2-12.6,48.2-12.6c16,0,45,11.4,48.2,12.7c2.8,1.1,4.7,3.8,4.7,6.9v35L338.1,186.5L338.1,186.5z
	 M295.7,186.5v-29.9c-12.9-4.8-29.4-9.8-38.1-9.8c-8.7,0-25.1,5-38.1,9.8v30H295.7L295.7,186.5z M180.5,186.5v-29.9
	c-6.1-2.2-27.3-9.8-38.1-9.8c-8.5,0-25.1,5-38.1,9.8v30H180.5L180.5,186.5z"/>
<circle class="st0" cx="200" cy="200" r="200.4"/>
</svg>
