<svg id="Layer_1" data-name="Layer 1" xmlns="http://www.w3.org/2000/svg" viewBox="0 0 291.02 13.59"><defs><style>.cls-1{fill:#fff;}</style></defs><title>dingbat</title><path class="cls-1" d="M150.82,151.48q0,2.86-4.55,4.66Q141.39,158,133.35,158q-2.33,0-25.83-2.86A434,434,0,0,0,61,151.9l-36.2-.53q-5.61-.21-19.91-0.63l9.64-.32h3.17q3.39,0.11,7.2.11l16.52,0.1,18.63,0.11A359.63,359.63,0,0,0,103,147.88q25.3-3,33-3,6.78,0,10.8,1.91T150.82,151.48ZM296,150.74q-5.09.21-6.14,0.21h-4.87q-11.54,0-26,.37t-17.36.37q-11.65,0-34.83,3.07-24.88,3.28-36.84,3.7a30.54,30.54,0,0,1-4.34-.11l-2.43-.21a17.39,17.39,0,0,1-8.31-1.74c-2.15-1.17-3.23-2.59-3.23-4.29q0-3,5.29-4.76,5.72-1.91,15.77-1.91h0.74q12.39,0,33.45,2.17t29.53,2.17q3.81,0,10.48.26c4.45,0.18,7.59.27,9.42,0.27l2.54-.11h5.29q2.33,0,9.42.16t11.85,0.16Q286.21,150.53,296,150.74Z" transform="translate(-4.94 -144.91)"/></svg>