<?xml version="1.0" encoding="utf-8"?>
<!-- Generator: Adobe Illustrator 19.2.1, SVG Export Plug-In . SVG Version: 6.00 Build 0)  -->
<!DOCTYPE svg PUBLIC "-//W3C//DTD SVG 1.1//EN" "http://www.w3.org/Graphics/SVG/1.1/DTD/svg11.dtd">
<svg version="1.1" id="Layer_3" xmlns="http://www.w3.org/2000/svg" xmlns:xlink="http://www.w3.org/1999/xlink" x="0px" y="0px"
	 viewBox="0 0 400 400" style="enable-background:new 0 0 400 400;" xml:space="preserve">
<style type="text/css">
	.st0{fill:none;}
</style>
<title>dinner</title>
<circle class="st0" cx="200" cy="200" r="200.4"/>
<path d="M378.8,96c-3.7-3.7-9.6-3.7-13.3,0l-55.4,55.4l-13.3-13.3l55.4-55.4c3.7-3.7,3.7-9.6,0-13.3c-3.7-3.7-9.6-3.7-13.3,0
	l-55.4,55.4l-13.3-13.3l55.4-55.4c3.7-3.7,3.7-9.6,0-13.3c-3.7-3.7-9.6-3.7-13.3,0l-79.8,79.8c-16.1,16.1-18,40.9-6,59.2l-158,158
	c-3.7,3.7-3.7,9.6,0,13.3c3.7,3.7,9.6,3.7,13.3,0l158-158c18.2,12.1,43.1,10.1,59.2-6l79.8-79.8C382.5,105.6,382.5,99.6,378.8,96
	L378.8,96z M245.8,175.8c-11-11-11-28.9,0-39.9l11.1-11.1l39.9,39.9l-11.1,11.1C274.7,186.8,256.8,186.8,245.8,175.8L245.8,175.8z
	 M245.8,175.8"/>
<path d="M65.9,53.5c-18.3,18.3-18.3,48.2,0,66.5l97.1,97.1c3.7,3.7,9.6,3.7,13.3,0l19.9-19.9l140,140c3.7,3.7,9.6,3.7,13.3,0
	c3.7-3.7,3.7-9.6,0-13.3L79.2,53.5C75.6,49.8,69.6,49.8,65.9,53.5L65.9,53.5z M183,183.9l-13.3,13.3l-90.5-90.5
	c-8.7-8.7-10.5-21.6-5.5-32.1L183,183.9z M183,183.9"/>
</svg>
