<?xml version="1.0" encoding="utf-8"?>
<!-- Generator: Adobe Illustrator 19.2.1, SVG Export Plug-In . SVG Version: 6.00 Build 0)  -->
<!DOCTYPE svg PUBLIC "-//W3C//DTD SVG 1.1//EN" "http://www.w3.org/Graphics/SVG/1.1/DTD/svg11.dtd">
<svg version="1.1" id="Layer_2" xmlns="http://www.w3.org/2000/svg" xmlns:xlink="http://www.w3.org/1999/xlink" x="0px" y="0px"
	 viewBox="0 0 400 400" style="enable-background:new 0 0 400 400;" xml:space="preserve">
<style type="text/css">
	.st0{fill:none;}
</style>
<title>exterior</title>
<path d="M357,111.5L331,79.3c-3.5-4.4-9.9-5-14.3-1.5c-0.6,0.5-1.1,1-1.5,1.5l-26,32.2c-1.5,1.8-2.3,4.1-2.3,6.4v31.7h-50.7v-31.7
	c0-2.3-0.8-4.6-2.3-6.4l-26-32.2c-3.5-4.4-9.9-5-14.3-1.5c-0.5,0.4-1,0.9-1.5,1.5l-26,32.2c-1.5,1.8-2.3,4.1-2.3,6.4v31.7h-50.7
	v-31.7c0-2.3-0.8-4.6-2.3-6.4L84.8,79.3c-3.5-4.4-9.9-5-14.3-1.5c-0.6,0.5-1.1,1-1.5,1.5l-25.9,32.2c-1.5,1.8-2.3,4.1-2.3,6.4v196.4
	c0,5.6,4.6,10.2,10.2,10.2c0,0,0,0,0,0h52c5.6,0,10.2-4.6,10.2-10.2l0,0v-12.9h50.7v12.9c0,5.6,4.6,10.2,10.2,10.2h0H226
	c5.6,0,10.2-4.6,10.2-10.2v0v-12.9h50.7v12.9c0,5.6,4.6,10.2,10.2,10.2h0H349c5.6,0,10.2-4.6,10.2-10.2v0V117.9
	C359.2,115.6,358.5,113.3,357,111.5L357,111.5z M307.3,121.5l15.9-19.6l15.9,19.6v182.7h-31.8L307.3,121.5L307.3,121.5z
	 M184.2,304.1V121.5l15.9-19.6l15.9,19.6v182.7H184.2z M61.1,304.1V121.5L77,101.9l15.9,19.6v182.7H61.1L61.1,304.1z M113.2,169.8
	h50.7V281h-50.7L113.2,169.8L113.2,169.8z M236.2,169.8h50.7V281h-50.7L236.2,169.8L236.2,169.8z"/>
<circle class="st0" cx="200" cy="200" r="200.4"/>
</svg>
