<?xml version="1.0" encoding="utf-8"?>
<!-- Generator: Adobe Illustrator 19.2.1, SVG Export Plug-In . SVG Version: 6.00 Build 0)  -->
<!DOCTYPE svg PUBLIC "-//W3C//DTD SVG 1.1//EN" "http://www.w3.org/Graphics/SVG/1.1/DTD/svg11.dtd">
<svg version="1.1" id="Layer_1" xmlns="http://www.w3.org/2000/svg" xmlns:xlink="http://www.w3.org/1999/xlink" x="0px" y="0px"
	 viewBox="0 0 97.3 97.3" style="enable-background:new 0 0 97.3 97.3;" xml:space="preserve">
<style type="text/css">
	.st0{fill:#AECABC;}
</style>
<title>icon</title>
<path class="st0" d="M48.7,0C21.8,0,0,21.8,0,48.7s21.8,48.7,48.7,48.7s48.7-21.8,48.7-48.7c0,0,0,0,0,0C97.3,21.8,75.6,0,48.7,0z
	 M71.8,71.3H46.7v-0.6c1.8,0,2.5-2.4,2.5-5.4v-8.7c-2.4,0.6-4.8,0.9-7.2,0.9c-9.3,0-16.4-6.5-16.4-15.8S32.6,26,42,26
	c5.1,0,8.9,0.8,10.8,2.4l-0.5,7.8h-0.5c-1.9-7.5-5.6-9.6-9.7-9.6c-4.8,0-7.1,3.2-7.1,15.2S37.3,57,42,57c2.9,0,5.6-1.4,7.2-3.8v-6.6
	c0-2.7-0.6-5.5-2.5-5.5v-0.5h24.5v8.7h-0.6c-0.5-8-12.4-8.1-12.4-8.1h-1.6v14.3h2.6c0,0,5.6,0.1,6.1-4.8h0.6v10.3h-0.6
	c-0.5-4.9-6.1-4.8-6.1-4.8h-2.6v14.7h1.6c0,0,12.1,0.3,13-8.5h0.6L71.8,71.3L71.8,71.3z"/>
</svg>
