<svg id="Layer_1" data-name="Layer 1" xmlns="http://www.w3.org/2000/svg" viewBox="0 0 97.35 97.35"><defs><style>.cls-1{fill:#fff;}</style></defs><title>icon</title><path class="cls-1" d="M50.6,1.4A48.68,48.68,0,1,0,99.28,50.07,48.68,48.68,0,0,0,50.6,1.4ZM73.71,72.74H48.62V72.17c1.84,0,2.54-2.45,2.54-5.42V58.08a27.79,27.79,0,0,1-7.23.88c-9.35,0-16.44-6.47-16.44-15.78s7.08-15.78,16.44-15.78c5.07,0,8.87.83,10.75,2.36l-0.52,7.82H53.63C51.75,30.12,48,28,43.93,28c-4.85,0-7.12,3.23-7.12,15.21s2.4,15.21,7.12,15.21a9,9,0,0,0,7.23-3.77V48c0-2.71-.61-5.46-2.54-5.46V42H73.14v8.65H72.57c-0.52-8-12.41-8.08-12.41-8.08H58.59V56.92h2.58S66.8,57,67.29,52.07h0.57V62.34H67.29c-0.48-4.89-6.12-4.85-6.12-4.85H58.59V72.17h1.57s12.06,0.26,13-8.48h0.57v9Z" transform="translate(-1.93 -1.4)"/></svg>