<?xml version="1.0" encoding="utf-8"?>
<!-- Generator: Adobe Illustrator 19.2.1, SVG Export Plug-In . SVG Version: 6.00 Build 0)  -->
<!DOCTYPE svg PUBLIC "-//W3C//DTD SVG 1.1//EN" "http://www.w3.org/Graphics/SVG/1.1/DTD/svg11.dtd">
<svg version="1.1" id="Layer_1" xmlns="http://www.w3.org/2000/svg" xmlns:xlink="http://www.w3.org/1999/xlink" x="0px" y="0px"
	 viewBox="0 0 400 400" style="enable-background:new 0 0 400 400;" xml:space="preserve">
<style type="text/css">
	.st0{fill:none;}
</style>
<title>interior</title>
<path d="M356.8,83.7H43.2c-5.1,0-9.3,4.2-9.3,9.3v31.7c0,5.1,4.2,9.3,9.3,9.3c5.1,0,9.3-4.2,9.3-9.3v-22.4h226.3V119
	c0,5.1,4.2,9.3,9.3,9.3c5.1,0,9.3-4.2,9.3-9.3c0,0,0,0,0,0v-16.7h50v88.4h-161v-31.5c0-5.1-4.2-9.3-9.3-9.3c-5.1,0-9.3,4.2-9.3,9.3
	v81.5c0,5.1,4.2,9.3,9.3,9.3c5.1,0,9.3-4.2,9.3-9.3c0,0,0,0,0,0v-31.4h161v88.4h-50V281c0-5.1-4.2-9.3-9.3-9.3
	c-5.1,0-9.3,4.2-9.3,9.3c0,0,0,0,0,0v16.7H52.5V177.2c0-5.1-4.2-9.3-9.3-9.3c-5.1,0-9.3,4.2-9.3,9.3V307c0,5.1,4.2,9.3,9.3,9.3h0
	h313.5c5.1,0,9.3-4.2,9.3-9.3v0V93C366.1,87.9,361.9,83.7,356.8,83.7L356.8,83.7L356.8,83.7z"/>
<circle class="st0" cx="200" cy="200" r="200.4"/>
</svg>
