<?xml version="1.0" encoding="utf-8"?>
<!-- Generator: Adobe Illustrator 19.2.1, SVG Export Plug-In . SVG Version: 6.00 Build 0)  -->
<!DOCTYPE svg PUBLIC "-//W3C//DTD SVG 1.1//EN" "http://www.w3.org/Graphics/SVG/1.1/DTD/svg11.dtd">
<svg version="1.1" id="Layer_1" xmlns="http://www.w3.org/2000/svg" xmlns:xlink="http://www.w3.org/1999/xlink" x="0px" y="0px"
	 viewBox="0 0 500 100" style="enable-background:new 0 0 500 100;" xml:space="preserve">
<style type="text/css">
	.st0{fill:#FFFFFF;}
</style>
<g>
	<path class="st0" d="M121.1,49.4l0.5,8.1c-2.3,1.5-6.3,2.4-11.1,2.4c-9.7,0-17-6.7-17-16.3c0-9.6,7.3-16.3,17-16.3
		c5.2,0,9.2,0.9,11.1,2.4l-0.5,8.1h-0.5c-1.9-7.7-5.8-10-10-10c-5,0-7.4,3.3-7.4,15.7c0,12.4,2.5,15.7,7.4,15.7c4.3,0,8.7-3,10-10
		H121.1z"/>
	<path class="st0" d="M147.5,56.7c-0.5,1.7-2.7,3.3-5.6,3.3c0,0-4.5,0-5-3.8c-0.6,2.2-3.1,3.8-6.3,3.8c-0.9,0-5.4-0.4-5.4-4.6
		c0-4.7,3.8-5.4,11.7-7.3v-2.8c0-4.7-2.6-7.1-5.7-5.5c-0.7,0.4-1.4,1.1-0.4,1.4c0.7,0.2,1.3,0.6,1.7,1.4c0.7,1.4,0.2,3.1-1.2,3.9
		c-1.4,0.7-3.2,0.2-3.9-1.2c-0.5-1-0.4-2.3,0.2-3c0.5-0.7,1.2-1.7,3.3-2.8c2-1.1,4.3-0.9,4.3-0.9c5.9,0,8.4,3.7,8.4,9v6.7
		c0,0,0,3.2,2.2,3.2c0,0,1,0,1.3-0.8L147.5,56.7z M132.1,54.3c0,0,0,3,2.4,3c1.2,0,2-0.9,2.4-2c0,0,0-6.6,0-6.6
		C132.8,49.6,132.1,52,132.1,54.3z"/>
	<path class="st0" d="M158.3,60c-5.5,0-8.1-1.8-8.1-1.8v-5.8h0.6c0.8,3,3.4,7,7.6,7c3.2,0,3.8-3.9,0.4-6.2l-4.6-2.8
		c-4.3-2.8-5.5-6.8-2.9-10c0,0,1.7-2.2,6.5-2.2c5.2,0,7.4,1.3,7.4,1.3v4.8h-0.6c-0.7-2.8-3.2-5.6-6.8-5.6c-2.9,0-4.3,3.2-0.3,5.7
		l4.6,2.8c4.1,2.5,5.2,7,2.9,10.1C164.9,57.6,163.2,60,158.3,60z"/>
	<path class="st0" d="M192.4,56.7c-0.5,1.7-2.7,3.3-5.6,3.3c0,0-4.5,0-5-3.8c-0.6,2.2-3.1,3.8-6.3,3.8c-0.9,0-5.4-0.4-5.4-4.6
		c0-4.7,3.8-5.4,11.7-7.3v-2.8c0-4.7-2.6-7.1-5.7-5.5c-0.7,0.4-1.4,1.1-0.4,1.4c0.7,0.2,1.3,0.6,1.7,1.4c0.7,1.4,0.2,3.1-1.2,3.9
		c-1.4,0.7-3.2,0.2-3.9-1.2c-0.5-1-0.4-2.3,0.2-3c0.5-0.7,1.2-1.7,3.3-2.8c2-1.1,4.3-0.9,4.3-0.9c5.9,0,8.4,3.7,8.4,9v6.7
		c0,0,0,3.2,2.2,3.2c0,0,1,0,1.3-0.8L192.4,56.7z M177,54.3c0,0,0,3,2.4,3c1.2,0,2-0.9,2.4-2c0,0,0-6.6,0-6.6
		C177.8,49.6,177,52,177,54.3z"/>
	<path class="st0" d="M207.9,60c-3.1,0-5.4-0.8-6.7-2.1c-1.5,1.2-5.4,2.2-5.4,1.5V31.1c0-1.5-0.5-2.2-2.3-2.9v-0.5l9-1.8V42
		c1.4-2.5,4.2-3.7,7.4-3.7c5.7,0,9.5,4.4,9.5,10.8C219.4,57.2,214,60,207.9,60z M206.7,39.9c-3.1,0-4.2,3.1-4.2,6.5v5.3
		c0,5.4,1.9,7.7,4.6,7.7c2.9,0,4.6-2.7,4.6-9.8C211.6,43.4,210.1,39.9,206.7,39.9z"/>
	<path class="st0" d="M245.3,56.7c-0.5,1.7-2.7,3.3-5.6,3.3c0,0-4.5,0-5-3.8c-0.6,2.2-3.1,3.8-6.3,3.8c-0.9,0-5.4-0.4-5.4-4.6
		c0-4.7,3.8-5.4,11.7-7.3v-2.8c0-4.7-2.6-7.1-5.7-5.5c-0.7,0.4-1.4,1.1-0.4,1.4c0.7,0.2,1.3,0.6,1.7,1.4c0.7,1.4,0.2,3.1-1.2,3.9
		c-1.4,0.7-3.2,0.2-3.9-1.2c-0.5-1-0.4-2.3,0.2-3c0.5-0.7,1.2-1.7,3.3-2.8c2-1.1,4.3-0.9,4.3-0.9c5.9,0,8.4,3.7,8.4,9v6.7
		c0,0,0,3.2,2.2,3.2c0,0,1,0,1.3-0.8L245.3,56.7z M229.9,54.3c0,0,0,3,2.4,3c1.2,0,2-0.9,2.4-2c0,0,0-6.6,0-6.6
		C230.6,49.6,229.9,52,229.9,54.3z"/>
	<path class="st0" d="M285.3,50.2v9.4h-26V59c1.9,0,2.6-2.5,2.6-5.6V34c0-2.8-0.6-5.7-2.6-5.7v-0.6h25.4v9h-0.6
		c-0.5-8.3-12.8-8.4-12.8-8.4h-1.6v14.9h2.7c0,0,5.8,0.1,6.3-5h0.6v10.6h-0.6c-0.5-5.1-6.3-5-6.3-5h-2.7V59h1.6
		c0,0,12.5,0.3,13.4-8.8H285.3z"/>
	<path class="st0" d="M298.2,60c-5.5,0-8.1-1.8-8.1-1.8v-5.8h0.6c0.8,3,3.4,7,7.6,7c3.2,0,3.8-3.9,0.4-6.2l-4.6-2.8
		c-4.3-2.8-5.5-6.8-2.8-10c0,0,1.7-2.2,6.5-2.2c5.2,0,7.4,1.3,7.4,1.3v4.8h-0.6c-0.7-2.8-3.2-5.6-6.8-5.6c-2.9,0-4.3,3.2-0.3,5.7
		l4.6,2.8c4.1,2.5,5.2,7,2.9,10.1C304.8,57.6,303.1,60,298.2,60z"/>
	<path class="st0" d="M324.6,55.6c-0.7,2.3-3.4,4.4-6.6,4.4c-3.6,0-6.7-1.4-6.7-6.9V39.3h-2.5l-0.1-0.6h2.6v-6.1l6.7-0.9v7h5.6
		l-0.1,0.6H318v13.7c0,2.5,1,3.8,3.4,3.8c1.3,0,2.3-0.8,2.7-1.4L324.6,55.6z"/>
	<path class="st0" d="M349.3,56.7c-0.5,1.7-2.7,3.3-5.6,3.3c0,0-4.5,0-5-3.8c-0.6,2.2-3.1,3.8-6.3,3.8c-0.9,0-5.4-0.4-5.4-4.6
		c0-4.7,3.8-5.4,11.7-7.3v-2.8c0-4.7-2.6-7.1-5.7-5.5c-0.7,0.4-1.4,1.1-0.4,1.4c0.7,0.2,1.3,0.6,1.7,1.4c0.7,1.4,0.2,3.1-1.2,3.9
		c-1.4,0.7-3.2,0.2-3.9-1.2c-0.5-1-0.4-2.3,0.2-3c0.5-0.7,1.2-1.7,3.3-2.8c2-1.1,4.3-0.9,4.3-0.9c5.9,0,8.4,3.7,8.4,9v6.7
		c0,0,0,3.2,2.2,3.2c0,0,1,0,1.3-0.8L349.3,56.7z M333.9,54.3c0,0,0,3,2.4,3c1.2,0,2-0.9,2.4-2c0,0,0-6.6,0-6.6
		C334.6,49.6,333.9,52,333.9,54.3z"/>
	<path class="st0" d="M366.2,55.6c-0.7,2.3-3.4,4.4-6.6,4.4c-3.6,0-6.7-1.4-6.7-6.9V39.3h-2.5l-0.1-0.6h2.6v-6.1l6.7-0.9v7h5.6
		l-0.1,0.6h-5.5v13.7c0,2.5,1,3.8,3.4,3.8c1.3,0,2.3-0.8,2.7-1.4L366.2,55.6z"/>
	<path class="st0" d="M375.5,48.7c0.2,5.7,2.4,7.7,5.4,8.4c2.4,0.5,5.7-0.6,6.7-3.6l0.6,0.2c-0.6,2.8-3.6,6.2-9.5,6.2
		c-5.9,0-10.4-5.1-10.4-10.8c0-7.1,5.1-10.9,11-10.9c5.7,0,9.5,2.7,9.5,10.4H375.5z M382.9,48.2c0-5.7-1.2-9.3-3.5-9.3
		c-2.4,0-3.8,4.9-3.8,9.3H382.9z"/>
	<path class="st0" d="M401,60c-5.5,0-8.1-1.8-8.1-1.8v-5.8h0.6c0.8,3,3.4,7,7.6,7c3.2,0,3.8-3.9,0.4-6.2l-4.6-2.8
		c-4.3-2.8-5.5-6.8-2.9-10c0,0,1.7-2.2,6.5-2.2c5.2,0,7.4,1.3,7.4,1.3v4.8h-0.6c-0.7-2.8-3.2-5.6-6.8-5.6c-2.9,0-4.3,3.2-0.3,5.7
		l4.6,2.8c4.1,2.5,5.2,7,2.9,10.1C407.6,57.6,405.9,60,401,60z"/>
</g>
<g>
	<path class="st0" d="M182.9,69.6l-0.7,1.8h-0.7l2.1-5.6h0.7l2.1,5.6h-0.7l-0.7-1.8H182.9z M184,66.6l-0.9,2.5h1.8L184,66.6z"/>
	<path class="st0" d="M192.8,68.8v2.6h-0.6v-2.6c0-0.7-0.4-1.1-1-1.1c-0.6,0-1.1,0.5-1.1,1.1v2.5h-0.6v-4.1h0.6v0.6
		c0.2-0.4,0.7-0.7,1.2-0.7C192.3,67.2,192.8,67.9,192.8,68.8z"/>
	<path class="st0" d="M195.7,67.2c1.2,0,2,0.9,2,2.1c0,0,0,0.1,0,0.2h-3.3c0,0.9,0.6,1.5,1.5,1.5c0.7,0,1.1-0.4,1.3-0.6l0.4,0.3
		c-0.2,0.4-0.8,0.9-1.7,0.9c-1.3,0-2.1-0.9-2.1-2.1C193.7,68,194.6,67.2,195.7,67.2z M197,69c0-0.9-0.6-1.3-1.3-1.3
		c-0.7,0-1.3,0.5-1.3,1.3H197z"/>
	<path class="st0" d="M201.4,68.1l-1.1,3.3h-0.7l-1.4-4.1h0.7l1.1,3.4c0,0,0,0,1.1-3.4h0.6c1.1,3.4,1.1,3.4,1.1,3.4l1.1-3.4h0.7
		l-1.4,4.1h-0.7L201.4,68.1z"/>
	<path class="st0" d="M207.7,65.9h1.4c1.1,0,1.7,0.6,1.7,1.5c0,0.7-0.3,1.3-1,1.5l1.4,2.5h-0.7l-1.3-2.4h-0.9v2.4h-0.6V65.9z
		 M209.1,68.4c0.7,0,1.1-0.3,1.1-1c0-0.6-0.3-1-1.1-1h-0.7v2H209.1z"/>
	<path class="st0" d="M214,67.2c1.2,0,2.1,0.9,2.1,2.2c0,1.2-0.9,2.2-2.2,2.2c-1.2,0-2.1-0.9-2.1-2.2
		C211.8,68.1,212.8,67.2,214,67.2z M214,70.9c0.9,0,1.5-0.7,1.5-1.6c0-0.9-0.6-1.6-1.5-1.6c-0.9,0-1.5,0.7-1.5,1.6
		C212.5,70.3,213.1,70.9,214,70.9z"/>
	<path class="st0" d="M217.1,65.7h0.6v5.7h-0.6V65.7z"/>
	<path class="st0" d="M219,65.7h0.6v5.7H219V65.7z"/>
	<path class="st0" d="M221.3,65.8c0.2,0,0.4,0.2,0.4,0.4c0,0.2-0.2,0.4-0.4,0.4c-0.2,0-0.4-0.2-0.4-0.4
		C220.8,66,221,65.8,221.3,65.8z M220.9,67.3h0.6v4.1h-0.6V67.3z"/>
	<path class="st0" d="M226.1,68.8v2.6h-0.6v-2.6c0-0.7-0.4-1.1-1-1.1c-0.6,0-1.1,0.5-1.1,1.1v2.5h-0.6v-4.1h0.6v0.6
		c0.2-0.4,0.7-0.7,1.2-0.7C225.7,67.2,226.1,67.9,226.1,68.8z"/>
	<path class="st0" d="M227.8,72c0.2,0.1,0.7,0.3,1.2,0.3c0.8,0,1.5-0.3,1.5-1.2v-0.4c-0.1,0.2-0.5,0.8-1.4,0.8c-1.2,0-2-0.9-2-2.2
		c0-1.3,0.8-2.2,2-2.2c0.9,0,1.3,0.5,1.5,0.8v-0.7h0.6v3.6c0,1.6-0.9,2.1-2.1,2.1c-0.5,0-1.1-0.2-1.5-0.4L227.8,72z M229.1,67.8
		c-0.8,0-1.4,0.7-1.4,1.6c0,1,0.6,1.6,1.4,1.6c0.8,0,1.4-0.7,1.4-1.6C230.6,68.4,229.9,67.8,229.1,67.8z"/>
	<path class="st0" d="M234.7,65.9h0.6v2.4h2.9v-2.4h0.6v5.6h-0.6v-2.5h-2.9v2.5h-0.6V65.9z"/>
	<path class="st0" d="M240.6,65.8c0.2,0,0.4,0.2,0.4,0.4c0,0.2-0.2,0.4-0.4,0.4c-0.2,0-0.4-0.2-0.4-0.4
		C240.2,66,240.4,65.8,240.6,65.8z M240.3,67.3h0.6v4.1h-0.6V67.3z"/>
	<path class="st0" d="M242.2,65.7h0.6v5.7h-0.6V65.7z"/>
	<path class="st0" d="M244.1,65.7h0.6v5.7h-0.6V65.7z"/>
	<path class="st0" d="M246.1,70.3c0.2,0.3,0.5,0.6,1,0.6c0.4,0,0.8-0.2,0.8-0.7c0-1-2.1-0.6-2.1-2c0-0.7,0.6-1.1,1.3-1.1
		c0.8,0,1.2,0.5,1.3,0.8l-0.5,0.3c-0.1-0.2-0.3-0.5-0.9-0.5c-0.4,0-0.7,0.2-0.7,0.6c0,0.9,2.1,0.6,2.1,2c0,0.7-0.6,1.2-1.4,1.2
		c-0.9,0-1.3-0.5-1.4-0.9L246.1,70.3z"/>
	<path class="st0" d="M251.8,65.9h2.6v0.6h-2v1.8h1.7v0.6h-1.7v2h2.1v0.6h-2.7V65.9z"/>
	<path class="st0" d="M255.8,70.3c0.2,0.3,0.5,0.6,1,0.6c0.4,0,0.8-0.2,0.8-0.7c0-1-2.1-0.6-2.1-2c0-0.7,0.6-1.1,1.3-1.1
		c0.8,0,1.2,0.5,1.3,0.8l-0.5,0.3c-0.1-0.2-0.3-0.5-0.9-0.5c-0.4,0-0.7,0.2-0.7,0.6c0,0.9,2.1,0.6,2.1,2c0,0.7-0.6,1.2-1.4,1.2
		c-0.9,0-1.3-0.5-1.4-0.9L255.8,70.3z"/>
	<path class="st0" d="M259.3,66.4h0.6v0.9h0.9v0.5h-0.9v2.1c0,0.8,0.2,1,0.8,1c0.1,0,0.2,0,0.2,0v0.6c0,0-0.2,0-0.4,0
		c-0.8,0-1.2-0.5-1.2-1.5v-2.2h-0.5v-0.5h0.5V66.4z"/>
	<path class="st0" d="M263.1,68.8c0.5,0,0.9,0.2,1.1,0.4v-0.5c0-0.6-0.4-0.9-1-0.9c-0.5,0-0.9,0.2-1.2,0.4l-0.3-0.5
		c0.3-0.2,0.8-0.5,1.5-0.5c1.1,0,1.6,0.6,1.6,1.5v2.7h-0.5l-0.1-0.3c-0.2,0.2-0.6,0.5-1.1,0.5c-0.9,0-1.6-0.6-1.6-1.4
		C261.5,69.4,262.1,68.8,263.1,68.8z M263.2,71c0.6,0,1-0.4,1-0.9c0-0.5-0.4-0.8-1-0.8c-0.6,0-1,0.4-1,0.8
		C262.1,70.6,262.5,71,263.2,71z"/>
	<path class="st0" d="M266,66.4h0.6v0.9h0.9v0.5h-0.9v2.1c0,0.8,0.2,1,0.8,1c0.1,0,0.2,0,0.2,0v0.6c0,0-0.2,0-0.4,0
		c-0.8,0-1.2-0.5-1.2-1.5v-2.2h-0.5v-0.5h0.5V66.4z"/>
	<path class="st0" d="M270.3,67.2c1.2,0,2,0.9,2,2.1c0,0,0,0.1,0,0.2h-3.3c0,0.9,0.6,1.5,1.5,1.5c0.7,0,1.1-0.4,1.3-0.6l0.4,0.3
		c-0.2,0.4-0.8,0.9-1.7,0.9c-1.3,0-2.1-0.9-2.1-2.1C268.3,68,269.2,67.2,270.3,67.2z M271.6,69c0-0.9-0.6-1.3-1.3-1.3
		c-0.7,0-1.3,0.5-1.3,1.3H271.6z"/>
	<path class="st0" d="M273.3,70.3c0.2,0.3,0.5,0.6,1,0.6c0.4,0,0.8-0.2,0.8-0.7c0-1-2.1-0.6-2.1-2c0-0.7,0.6-1.1,1.3-1.1
		c0.8,0,1.2,0.5,1.3,0.8l-0.5,0.3c-0.1-0.2-0.3-0.5-0.9-0.5c-0.4,0-0.7,0.2-0.7,0.6c0,0.9,2.1,0.6,2.1,2c0,0.7-0.6,1.2-1.4,1.2
		c-0.9,0-1.3-0.5-1.4-0.9L273.3,70.3z"/>
	<path class="st0" d="M282,68.3c-0.2-0.2-0.6-0.5-1.2-0.5c-0.9,0-1.5,0.7-1.5,1.6c0,0.9,0.6,1.6,1.5,1.6c0.7,0,1.1-0.4,1.2-0.5
		l0.2,0.5c-0.2,0.2-0.7,0.6-1.4,0.6c-1.2,0-2.1-0.9-2.1-2.2s0.9-2.2,2.1-2.2c0.8,0,1.2,0.4,1.5,0.6L282,68.3z"/>
	<path class="st0" d="M285.1,67.2c1.2,0,2.1,0.9,2.1,2.2c0,1.2-0.9,2.2-2.2,2.2s-2.1-0.9-2.1-2.2C282.9,68.1,283.8,67.2,285.1,67.2z
		 M285.1,70.9c0.9,0,1.5-0.7,1.5-1.6c0-0.9-0.6-1.6-1.5-1.6s-1.5,0.7-1.5,1.6C283.6,70.3,284.2,70.9,285.1,70.9z"/>
	<path class="st0" d="M294,71.4h-0.6v-2.5c0-0.8-0.3-1.2-0.9-1.2c-0.6,0-1,0.4-1,1.2v2.5h-0.6v-2.6c0-0.7-0.4-1.1-0.9-1.1
		c-0.5,0-1,0.5-1,1.2v2.5h-0.6v-4.1h0.6c0,0.4,0,0.6,0,0.6c0.2-0.4,0.6-0.7,1.2-0.7c0.6,0,1.1,0.3,1.2,0.8c0.2-0.5,0.7-0.8,1.3-0.8
		c0.9,0,1.4,0.7,1.4,1.6V71.4z"/>
	<path class="st0" d="M301,71.4h-0.6v-2.5c0-0.8-0.3-1.2-0.9-1.2c-0.6,0-1,0.4-1,1.2v2.5h-0.6v-2.6c0-0.7-0.4-1.1-0.9-1.1
		c-0.5,0-1,0.5-1,1.2v2.5h-0.6v-4.1h0.6c0,0.4,0,0.6,0,0.6c0.2-0.4,0.6-0.7,1.2-0.7c0.6,0,1.1,0.3,1.2,0.8c0.2-0.5,0.7-0.8,1.3-0.8
		c0.9,0,1.4,0.7,1.4,1.6V71.4z"/>
	<path class="st0" d="M302.2,69.9v-2.6h0.6v2.6c0,0.7,0.4,1.1,1,1.1c0.6,0,1.1-0.5,1.1-1.1v-2.5h0.6v4.1h-0.6v-0.6
		c-0.2,0.4-0.7,0.7-1.2,0.7C302.7,71.5,302.2,70.8,302.2,69.9z"/>
	<path class="st0" d="M310.1,68.8v2.6h-0.6v-2.6c0-0.7-0.4-1.1-1-1.1c-0.6,0-1.1,0.5-1.1,1.1v2.5h-0.6v-4.1h0.6v0.6
		c0.2-0.4,0.7-0.7,1.2-0.7C309.6,67.2,310.1,67.9,310.1,68.8z"/>
	<path class="st0" d="M311.6,65.8c0.2,0,0.4,0.2,0.4,0.4c0,0.2-0.2,0.4-0.4,0.4c-0.2,0-0.4-0.2-0.4-0.4
		C311.2,66,311.4,65.8,311.6,65.8z M311.3,67.3h0.6v4.1h-0.6V67.3z"/>
	<path class="st0" d="M313.3,66.4h0.6v0.9h0.9v0.5h-0.9v2.1c0,0.8,0.2,1,0.8,1c0.1,0,0.2,0,0.2,0v0.6c0,0-0.2,0-0.4,0
		c-0.8,0-1.2-0.5-1.2-1.5v-2.2h-0.5v-0.5h0.5V66.4z"/>
	<path class="st0" d="M316.6,72.8l0.6-1.5l-1.7-4.1h0.7l1.3,3.3l1.3-3.3h0.7l-2.2,5.5H316.6z"/>
	<path class="st0" d="M320.1,70.6c0.2,0,0.4,0.2,0.4,0.4c0,0.2-0.2,0.4-0.4,0.4s-0.5-0.2-0.5-0.4C319.7,70.8,319.9,70.6,320.1,70.6z
		"/>
</g>
</svg>
